<?xml version="1.0" standalone="no"?><!DOCTYPE svg PUBLIC "-//W3C//DTD SVG 1.1//EN" "http://www.w3.org/Graphics/SVG/1.1/DTD/svg11.dtd"><svg t="1701181699594" class="icon" viewBox="0 0 1024 1024" version="1.1" xmlns="http://www.w3.org/2000/svg" p-id="1552" xmlns:xlink="http://www.w3.org/1999/xlink" width="200" height="200"><path d="M626.161203 178.239566q71.301332-68.906268 63.868375-84.22642t-132.375466 0Q516.566375 0 498.87869 0T440.48868 91.563023q-99.642923-12.925087-117.908728 0T369.60029 188.026293z" fill="#92D34B" p-id="1553"></path><path d="M807.552893 230.325326c80.826529 54.604707 168.576721 140.978425 126.277687 294.744291q-42.285269 153.765865-311.317032 448.317449-87.323485 101.212103-168.315191 0c-80.991706-101.225868-282.177087-334.483083-282.177087-500.499563S271.760547 185.823935 415.106507 180.717218s311.606092-5.065423 392.446386 49.608108z" fill="#E96868" p-id="1554"></path><path d="M505.871176 1000.792655h-1.376474c-29.841947-0.550589-59.078247-18.472276-86.869248-53.255763-6.53825-8.258842-13.888619-17.260979-21.858401-27.089-90.15902-111.342949-257.978681-318.584813-257.978681-472.130443 0-81.432178 24.432406-155.761752 68.82368-209.320339 44.81798-54.095412 108.452354-85.24501 179.203097-87.750192 156.642695-5.505894 312.528329-3.248478 391.840738 50.461522 52.567527 35.595607 87.667603 71.094861 110.448241 111.714597 30.901832 55.058944 36.806904 118.5832 17.536273 188.728294-28.011238 101.969164-131.838641 251.894668-308.55032 445.688385-30.378772 35.155136-61.032839 52.952939-91.218905 52.952939z m-20.316751-833.633702c-33.035366 0-66.428616 0.825884-99.202451 1.982122-135.871708 4.803893-230.779563 119.615555-230.779563 279.217668 0 147.158792 165.245655 351.207237 254.014437 460.829595 7.983547 9.869316 15.361445 18.967806 21.927224 27.185353 24.322288 30.433831 48.961166 46.098101 73.24216 46.552337 25.203231 0.426707 51.631524-15.278857 78.789348-46.800102l0.165177-0.192706C758.577963 744.231742 861.001363 596.701303 888.324363 497.457556c18.22451-66.359792 13.035205-123.689917-15.89827-175.252617-21.376635-38.114554-54.701061-71.686745-104.887287-105.671878-58.39001-39.546086-167.640719-49.374108-281.984381-49.374108z" fill="#D13333" p-id="1555"></path><path d="M553.180573 833.771349m-18.761335 0a18.761335 18.761335 0 1 0 37.52267 0 18.761335 18.761335 0 1 0-37.52267 0Z" fill="#CF4141" p-id="1556"></path><path d="M674.654368 615.84805m-15.182504 0a15.182504 15.182504 0 1 0 30.365007 0 15.182504 15.182504 0 1 0-30.365007 0Z" fill="#CF4141" p-id="1557"></path><path d="M281.671157 612.269219m-15.182504 0a15.182504 15.182504 0 1 0 30.365008 0 15.182504 15.182504 0 1 0-30.365008 0Z" fill="#CF4141" p-id="1558"></path><path d="M774.682704 403.279233m-18.761335 0a18.761335 18.761335 0 1 0 37.52267 0 18.761335 18.761335 0 1 0-37.52267 0Z" fill="#CF4141" p-id="1559"></path><path d="M652.327966 277.345664m-7.143898 0a7.143898 7.143898 0 1 0 14.287796 0 7.143898 7.143898 0 1 0-14.287796 0Z" fill="#CF4141" p-id="1560"></path><path d="M404.287424 218.996949a15.003562 15.003562 0 1 1-12.168026 17.371096 14.976033 14.976033 0 0 1 12.168026-17.371096z" fill="#CF4141" p-id="1561"></path><path d="M447.797755 574.760313m-22.326402 0a22.326402 22.326402 0 1 0 44.652803 0 22.326402 22.326402 0 1 0-44.652803 0Z" fill="#CF4141" p-id="1562"></path><path d="M222.785616 606.735795c-58.62401 0-106.34635-26.538411-125.87851-51.177288C89.735679 546.460016 80.871189 532.130926 79.370833 514.980065s4.94154-32.539836 18.582393-44.735391c13.255441-11.851438 26.152998-20.220397 38.224672-24.872878a8.933314 8.933314 0 1 1 6.414367 16.669095c-10.089551 3.881656-21.10134 11.121907-32.732542 21.528047-8.258842 7.419193-24.776525 28.217709 1.04612 60.895192 14.136384 17.894157 55.609533 44.405038 111.879773 44.405038 22.216284 0 53.118116-9.704139 91.852083-28.837122a8.933314 8.933314 0 1 1 7.900959 16.022153c-41.789738 20.647104-74.412162 30.681596-99.753042 30.681596z" fill="#D13333" p-id="1563"></path><path d="M326.007371 467.533021q-3.303537-8.547901-11.507319-5.960131c-8.258842 2.601535-7.983547 13.847324-2.35377 17.522509s14.205207 12.016614 14.205208 12.016614a58.582716 58.582716 0 0 1 13.888618-11.796378c7.887194-4.528598 5.505894-17.150861-2.601535-18.307099q-8.093665-1.128708-11.631202 6.524485z" fill="#FFFFFF" p-id="1564"></path><path d="M295.270716 567.712769q-7.075074-31.383598-3.207184-38.692673t52.030702-25.368408a1.789416 1.789416 0 0 1 1.83071 0.357883q11.810143 10.791553-4.501069 18.059333a57.178713 57.178713 0 0 0-6.496955 3.083301 32.237012 32.237012 0 0 1 4.638716-1.954592c5.161776 1.459062 7.887194 10.227199 4.033068 15.072386s1.376474 7.584369 1.170002 12.75991c-0.082588 2.395064-2.284946 3.179654-3.854126 5.918836-1.816945 3.165889-0.49553 4.569892-2.174828 6.978721-1.83071 2.642829-7.267781 7.969782-15.705564 12.154262q-5.024129 2.505182-17.508744 7.625664z" fill="#D13333" p-id="1565"></path><path d="M323.405836 564.78088q11.273319-9.635315 8.327665-20.564516T325.553135 531.731749q-1.968357-20.647104-4.129421-28.754533c-2.174828-8.066135-14.136384-8.644254-15.141209-2.037181s4.70754 34.90737-0.936002 40.6335q-5.643542 5.72613 18.059333 23.207345z" fill="#D13333" p-id="1566"></path><path d="M307.658978 518.724074l15.650505-7.06131q-1.459062-9.497668-3.510008-12.00285a9.194844 9.194844 0 0 0-7.749546-3.207183c-2.271181 0.151412-4.597422 0.977296-5.505894 3.551302s-0.454236 8.616725 1.114943 18.720041z" fill="#EB5151" opacity=".44" p-id="1567"></path><path d="M801.647821 606.74956c-24.914172 0-54.976355-8.258842-89.333136-24.363583a8.933314 8.933314 0 0 1 7.611899-16.173565c31.961717 15.044856 59.449894 22.67052 81.721237 22.670521 56.27024 0 97.729625-26.552176 111.893539-44.405039 8.589195-10.846612 15.210033-30.654067 11.232024-47.529633-2.642829-11.21826-9.635315-19.55969-20.798516-24.776524a8.933314 8.933314 0 0 1 7.58437-16.173565c16.118506 7.543075 26.703588 20.289221 30.599008 36.848198 5.505894 23.400051-3.702714 48.947401-14.61815 62.725902-19.53216 24.638877-67.2545 51.177288-125.892275 51.177288z" fill="#D13333" p-id="1568"></path><path d="M682.651679 467.533021q3.276007-8.547901 11.507319-5.960131c8.258842 2.601535 7.983547 13.847324 2.35377 17.522509s-14.205207 12.016614-14.205207 12.016614a58.472598 58.472598 0 0 0-13.902384-11.796378c-7.887194-4.528598-5.505894-17.150861 2.601536-18.307099q8.093665-1.128708 11.644966 6.524485z" fill="#FFFFFF" p-id="1569"></path><path d="M730.690608 569.447125q7.102604-31.383598 3.207183-38.692672t-52.016937-25.368409a1.789416 1.789416 0 0 0-1.83071 0.357884q-11.810143 10.777788 4.501069 18.059333a58.775422 58.775422 0 0 1 6.496955 3.083301 32.237012 32.237012 0 0 0-4.638716-1.954593c-5.175541 1.459062-7.900958 10.227199-4.033068 15.072386s-1.376474 7.584369-1.183767 12.75991c0.082588 2.395064 2.298711 3.179654 3.867891 5.918837 1.80318 3.165889 0.49553 4.569892 2.161063 6.978721 1.844475 2.642829 7.281545 7.969782 15.719329 12.154262q5.024129 2.505182 17.508744 7.625664z" fill="#D13333" p-id="1570"></path><path d="M702.569252 566.515237q-11.245789-9.635315-8.258842-20.564516t6.152837-12.484615q1.968357-20.647104 4.129421-28.754534c2.161064-8.0799 14.136384-8.644254 15.14121-2.037181s-4.693775 34.90737 0.949767 40.633501q5.588483 5.72613-18.114393 23.207345z" fill="#D13333" p-id="1571"></path><path d="M718.31611 520.45843L702.706899 513.42465q1.459062-9.497668 3.496243-12.00285a9.222373 9.222373 0 0 1 7.749547-3.207183c2.284946 0.151412 4.611187 0.977296 5.505894 3.551302s0.440472 8.589195-1.142473 18.692511z" fill="#EB5151" opacity=".44" p-id="1572"></path><path d="M429.201596 395.36451a7.143898 7.143898 0 0 1 7.887194-11.920261L461.824021 399.769226a7.143898 7.143898 0 1 1-7.887194 11.906496z" fill="#FFFFFF" p-id="1573"></path><path d="M431.376425 422.315863a7.143898 7.143898 0 1 1-4.129421-13.682147l29.649241-8.86449a7.143898 7.143898 0 1 1 4.129421 13.695912z" fill="#FFFFFF" p-id="1574"></path><path d="M605.954571 394.855215a7.143898 7.143898 0 1 0-7.859665-11.920261l-24.666406 16.324976a7.143898 7.143898 0 1 0 7.873429 11.920262z" fill="#FFFFFF" p-id="1575"></path><path d="M603.793507 421.806568a7.143898 7.143898 0 1 0 4.129421-13.682148l-29.663006-8.86449a7.143898 7.143898 0 0 0-4.129421 13.695913z" fill="#FFFFFF" p-id="1576"></path></svg>