<?xml version="1.0" standalone="no"?><!DOCTYPE svg PUBLIC "-//W3C//DTD SVG 1.1//EN" "http://www.w3.org/Graphics/SVG/1.1/DTD/svg11.dtd"><svg t="1701181687382" class="icon" viewBox="0 0 1235 1024" version="1.1" xmlns="http://www.w3.org/2000/svg" p-id="1391" xmlns:xlink="http://www.w3.org/1999/xlink" width="241.2109375" height="200"><path d="M476.35731846 100.78943925c125.52750615-23.14477705 157.00879073 96.8707626 157.04992441 126.7066837 0.38391768 352.28598838 0 573.13487373 0 586.955925 0 22.59632198-94.23818174-7.54124854-120.55028291 72.86217099s-74.42526533 74.64464737-128.42060361 72.87588106-113.70831328-112.43315742-127.84472666-148.54888037S194.73968252 791.84201504 194.73968252 711.91849326s61.85194805-48.59306192 0-142.40619141 23.30931269-197.44359258 61.85194717-232.92859394 5.84103955-130.87493701 104.20634091-138.88237148-9.96815918-73.76712011 115.55934786-96.91189717z m161.60209628 106.9486128q37.32232324-118.6855374 143.96928575-104.91933164c106.59211787 13.71136026 17.33116026 88.90446269 115.6279043 96.91189717s65.63628369 103.34252461 104.13778447 138.88237148 123.70389521 139.11546445 61.85194717 232.92859482 0 62.4826705 0 142.40619141-47.71553467 63.63442441-61.85194717 99.72272549-54.73575176 148.08269443-134.50844795 148.08269443-110.3627417 7.99372354-136.67484287-72.40969511-92.51055-50.26584815-92.51055-72.86217012z" fill="#E5AA5E" p-id="1392"></path><path d="M981.4564206 328.69967539q58.95885058 53.30977031 71.58701427 106.79778809c12.54589541 53.47430684-4.93608955 94.60838848-33.08551349 129.99740977S1012.19729082 734.4051251 921.41437256 700.0581667 748.25359912 848.60704795 715.20922021 819.81319063q-33.03066797-28.79385732-92.55168456-28.79385733v-117.19099951c0-90.09735029 92.55168457-145.98485683 201.55700126-139.23886728q109.01902852 6.74598955 157.24188369-205.88979112z" fill="#E5AA5E" p-id="1393"></path><path d="M597.66172578 708.50436435c0.13711377-143.43454336 0.13711377-311.16561768-0.08226826-506.86786757 0-19.44270967-10.96908838-53.06296553-29.41086885-77.19496084-25.85962617-33.82592695-63.68926992-49.36089815-115.8747082-39.76294571-23.5698293 4.34650166-39.0636668 10.29723222-48.16801055 17.53683047a27.80663906 27.80663906 0 0 0-10.96908838 19.04508018 95.29395644 95.29395644 0 0 0-0.86381542 11.87403837c-0.57587695 15.98744619-2.07041573 23.18591074-9.13176651 31.31674718-8.62444599 9.98187012-23.62467393 15.35672373-47.49615263 17.3037375-24.59818125 2.0018584-40.64047295 9.70764346-51.30791192 22.73343574-8.58331143 10.48919063-13.53311279 23.30931269-18.70229532 45.41202598-0.60329971 2.53660166-0.64443428 2.74227188-2.20752948 9.59795243-3.4552626 15.27445547-5.48454463 22.85683857-8.61073419 31.15221153-4.29165615 11.35300693-9.78991172 20.32023604-17.37229394 27.31303037-25.51684219 23.61096299-51.17079815 56.97070313-66.18473789 91.34508427-20.12827763 46.07017207-19.93631836 89.67229805 5.89588506 128.88679044 30.94654131 46.94769844 35.38902217 67.87123506 21.93817676 89.57631885-1.46711602 2.3583542-7.02021621 10.44805693-8.08970273 12.10713135-8.22681651 12.75156562-12.16197685 25.37972842-12.16197687 46.20728495 0 20.21054589 3.13990136 34.27840195 8.9260963 44.27398389 4.3602126 7.54124854 9.73506621 12.44991533 19.41528603 18.72971807l2.4543334 1.57680703 2.53660166 1.6042289c15.35672373 9.7761999 22.65116748 16.68672597 27.83406269 29.91818936 8.70671426 22.23982705 27.88890732 57.4643127 47.77038018 84.94187871 25.76364698 35.64953789 50.95141612 56.62791914 71.13453925 57.28606436l7.18475274 0.2605166c36.29397128 1.37113594 50.55378662 0.38391768 66.07504687-6.26609179 19.77178183-8.47362128 34.45664941-26.65488516 45.37089229-60.01462618 10.84568643-33.11293623 32.68788398-52.03461357 63.49731065-61.28978203 12.01115215-3.60608818 16.74157148-4.3602126 41.23006171-7.45897939 8.10341455-1.02835195 12.34022432-1.8099 15.08249707-2.83825196l0.23309297-0.08226826c-0.01371094-9.3237249 0.04113369-50.52636387 0.05484551-78.2233128zM448.66036953 65.12619043c59.72668682-10.96908838 104.98788809 7.58238222 135.28999511 47.23563691 21.14291778 27.65581435 33.48314297 65.52659268 33.51056573 89.24724668 0.20567021 195.72967266 0.20567021 363.47445878 0.08226826 506.92271309 0 31.22076797-0.08226826 79.52589141-0.08226826 80.04692373 0 8.30908477-5.16918252 13.83476309-13.14919511 16.82383975-4.68928565 1.75505449-9.91331367 2.74227188-19.59353438 3.94887128-23.18591074 2.93423115-27.50498965 3.61979912-38.00789121 6.77341231-24.92725342 7.48640302-41.64140215 21.93817675-50.30698272 48.41481446-12.57331729 38.39180977-30.94654131 61.19380283-56.44967168 72.12175664-10.81826367 4.64815107-22.69230205 7.10248447-36.66417803 8.00743446-10.26980947 0.65814521-18.35951221 0.56216602-37.95304658-0.1508247l-7.12990722-0.2468039c-28.32767138-0.93237276-57.4643127-25.22890371-86.60095401-65.51288174-20.86869112-28.79385732-40.85985498-65.55401543-50.18357988-89.35693682-3.23588144-8.22681651-7.89774346-12.69672012-19.97745205-20.37508242l-2.52289072-1.60422891c-1.01464102-0.64443428-1.83732276-1.16546573-2.61886905-1.68649717-12.06599766-7.82918701-19.56611162-14.68486758-25.80478154-25.43457392-7.70578506-13.31373076-11.61352266-30.78200479-11.61352178-54.25585401 0-24.77642871 5.11433789-41.13408164 15.32930098-56.98441493 1.37113594-2.05670391 6.7734123-9.95444825 7.92516621-11.81919288 4.11340781-6.63629854 5.15547158-11.24331592 3.52381992-18.96281191-2.27608594-10.73599541-10.03671563-26.25725566-25.13292451-49.16893887-29.91818847-45.37089229-30.16499326-95.97952442-7.5138249-147.76733321 16.23425097-37.1577876 43.51985859-72.67021172 70.92886816-97.94024912 9.35114766-8.63815693 13.71136026-20.11456582 20.05972031-48.23656698 1.59051797-7.02021621 1.63165166-7.19846455 2.24866319-9.8173336 5.8136168-24.77642871 11.66836817-40.00975049 22.67859111-53.47430684 14.25981533-17.42713945 35.33417666-27.54612334 65.08782861-29.97303398 19.19590489-1.56309521 29.5754045-5.30629628 34.05901993-10.47547969 3.01649942-3.48268535 3.85289209-7.48640302 4.26423252-19.0039456a109.22469873 109.22469873 0 0 1 1.09690927-14.20496982c4.2642334-27.1759166 25.22890371-43.8763544 75.22052432-53.09038829z m173.38015547 724.49458418a47.35903974 47.35903974 0 0 0 8.91238447 2.11154942l7.70578418 1.37113594c3.30443789 0.60329971 6.15640078 1.17917666 9.00836367 1.86474462a95.36251289 95.36251289 0 0 1 20.37508242 7.12990811c20.73157734 10.2286749 36.3076831 28.79385732 45.98790294 58.31441631 11.09249033 33.85334971 22.45920908 50.54007568 38.18613955 58.30070537 13.47826729 6.66372128 26.7234416 7.76062969 70.07876454 7.34928926 8.59702325 0 13.35486533-0.10969102 18.96281192-0.10969102 37.02067383 0 68.28257549-27.18962842 94.92374883-74.49382178a393.85883408 393.85883408 0 0 0 18.53775967-37.93933477c2.26237412-5.27887354 4.4150581-10.5303252 6.69114404-16.28909648 1.37113594-3.38670615 5.37485362-13.71136026 5.10062608-13.02579316 5.16918252-13.23146338 12.46362714-20.15570039 27.82035087-29.91818848l2.53660166-1.60422891 2.45433341-1.59051797c9.6802207-6.2660918 15.08249707-11.17475859 19.41528691-18.71600712 5.78619404-9.99558193 8.92609541-24.06343799 8.92609629-44.27398389 0-20.82755654-3.94887217-33.45572021-12.14826593-46.20728496-1.08319747-1.65907441-6.63629854-9.74877715-8.10341454-12.10713135-13.4919791-21.70508378-9.04949825-42.64233135 21.93817764-89.57631885 25.83220342-39.17335693 26.05158545-82.77548378 5.89588505-128.88679042-15.01393974-34.37438115-40.6678957-67.73412129-66.18473789-91.29023878-7.58238222-6.99279434-13.08063779-15.96002344-17.37229394-27.31303037-3.13990136-8.29537295-5.15547158-15.89146699-8.61073418-31.15221152-1.56309521-6.93794883-1.60422891-7.11619629-2.20752949-9.59795244-5.16918252-22.04786778-10.11898388-34.92283536-18.7022962-45.41202598-10.66743896-13.02579229-26.70973066-20.74528828-51.30791103-22.74714756s-40.83243223-8.22681651-50.73203409-19.34672958c-7.73320781-8.69300244-10.16011846-16.60445771-12.80641113-33.96304073-0.3564958-2.28979687-0.46618594-3.07134492-0.65814521-4.20938789-1.91959013-11.87403838-4.30536709-18.23610938-9.69393164-23.74807588-7.33557833-7.51382578-20.56704082-12.8886794-42.23099092-15.68579677-65.59514912-8.47362128-109.08758496 22.87054951-132.69854795 96.58282411zM602.59781533 178.90306104c26.25725566-83.50218633 78.56609677-121.63348037 154.69157022-111.80243497 25.73622422 3.33186065 43.01253808 10.36578867 53.92678184 21.52683633 8.89867266 9.11805469 12.57331729 18.90796641 15.08249618 34.47036036 0.19195928 1.22031123 0.32907305 2.04299297 0.68556797 4.38763534 2.07041573 13.71136026 3.68835644 18.88054365 8.00743536 23.74807677 5.93701875 6.66372128 17.38600489 11.10620215 37.44572519 12.7378538 29.75365283 2.41319971 50.82801416 12.54589541 65.08782949 29.97303487 10.96908838 13.45084453 16.86497344 28.68416631 22.67859024 53.47430595 0.61701153 2.61886992 0.65814521 2.74227188 2.24866318 9.81733447 6.36207099 28.12200029 10.70857266 39.59840918 20.07343213 48.236567 27.42272138 25.28374922 54.68090625 60.78246153 70.91515722 97.9265373 22.63745654 51.8015206 22.40436357 102.41015273-7.51382578 147.78104502-15.08249707 22.89797227-22.85683857 38.39180977-25.13292451 49.16893886-1.63165166 7.71949599-0.60329971 12.34022432 3.52381992 18.96281192 1.15175391 1.86474463 6.59516484 9.76248896 7.92516621 11.81919287 10.21496396 15.86404424 15.32930097 32.20798623 15.32930186 56.98441494 0 23.47384922-3.9077376 40.94212325-11.61352265 54.25585401-6.2249581 10.74970635-13.71136026 17.60538691-25.80478067 25.43457392-0.78154717 0.52103144-1.59051797 1.04206377-2.60515899 1.67278536l-2.53660165 1.60422978C993.00138594 778.76137637 988.29838935 783.21756904 985.04879697 791.44438555c0.30165029-0.76783623-3.75691289 9.59795244-5.114337 13.09434873a1045.42269082 1045.42269082 0 0 1-6.85568057 16.8101288 412.71195498 412.71195498 0 0 1-19.49755518 39.85892491c-29.79478652 52.91214082-66.26700615 84.6402293-112.25490909 84.6402293-5.48454463 0-10.24238672 0-18.78456445 0.10969101-24.44735567 0.21938203-33.05809072 0.13711377-43.73923974-0.74041348-14.25981533-1.17917666-25.46199668-3.79804658-35.33417667-8.66558057-21.43085625-10.5851707-35.64953789-31.5361292-48.27770068-69.92793896-8.04856904-24.58446943-20.04600938-38.84428477-35.88263086-46.61862626-8.73413701-4.30536709-12.94352402-5.30629628-31.74179941-8.61073419-7.37671201-1.28886768-11.46269708-2.34464239-15.32930186-4.37392441a17.82476895 17.82476895 0 0 1-10.03671562-16.31651835V180.35646523z" fill="#6B360C" p-id="1394"></path><path d="M592.80790362 300.83819082H640.61941836q41.05181338 200.03503974 29.10921855 279.62948848c-11.94259482 79.60815967-108.01809932 70.13360918-127.61163369 3.56495361q-19.66209082-66.56865557 50.6909004-283.19444208z" fill="#E5AA5E" p-id="1395"></path><path d="M979.61909873 331.81215401c36.40366231 34.70345332 58.47895283 74.23330605 65.64999463 110.25305156 11.87403838 59.68555312-7.99372354 88.19147197-32.27654356 125.44523789-10.83197461 16.60445771-16.35765293 38.1587168-8.22681563 59.21936631 18.86683183 48.67533018-15.82291055 104.0006707-81.40434872 79.18310742C832.67444638 671.56595967 727.00099033 868.95470674 700.81229112 831.7283627c-21.7187956-30.85056123-49.4843001-38.39180977-78.56609591-41.79222686v-123.89585449c0-90.09735029 94.95117246-132.34205303 203.9702001-125.59606348 72.67021172 4.49732637 128.39318086-66.93886231 153.40270342-208.63206386zM232.95324395 321.47378809q49.9367751 215.88537305 158.95580361 209.13938438C500.91436513 523.86718291 598.11420078 579.0691206 598.11420078 669.16647089v120.00182872q-63.48359971 0.90495-96.52797949 29.69880644c-33.04437891 28.79385732-116.1352248-157.11848174-206.8770085-122.77152246s-77.68856953-103.95953613-105.83799258-139.32113554-38.39180977-71.7515499-25.7773579-125.23956768q12.57331729-53.50172959 69.85938164-110.06109229z" fill="#C88E43" p-id="1396"></path><path d="M341.25928174 180.47986719q45.00068555 0 49.93677509-37.76108731c1.37113594-10.44805693-0.39762949-34.56634043 16.45363301-43.16336279 43.45130215-22.07529052 115.05202734-24.7627169 146.01227959 9.21403388s45.41202597 68.41968926 45.41202598 108.31974874v257.06058925q-165.5235457-33.07180166-215.26836153-90.05621659t-42.54635214-203.61370518z" fill="#F3C78E" p-id="1397"></path><path d="M354.29878584 577.4648917a120.12523066 119.41223994 0 1 0 240.25046045 0 120.12523066 119.41223994 0 1 0-240.25046045 0Z" fill="#6B360C" p-id="1398"></path><path d="M479.12701308 437.73241484l13.77991758 6.67743311-109.80057656 223.7831165-13.7799167-6.67743223 109.80057568-223.78311738z" fill="#FFFFFF" p-id="1399"></path><path d="M874.89172637 183.53750029c6.85568057 96.19890644-6.65000948 163.30230528-39.85892579 201.28277461s-104.0006707 58.65720117-212.37526493 90.02879385V183.53750029q10.66743896-35.64953789 29.78107558-60.5219458a92.71622021 92.71622021 0 0 1 46.87914199-32.09829522C759.35980127 74.2305333 807.89801768 93.5361292 807.89801768 129.18566709s24.43364473 54.3518332 66.99370869 54.3518332z" fill="#F3C78E" p-id="1400"></path><path d="M569.2380752 586.82975029v-19.89518378h80.96558378v19.89518378h-80.96558378z" fill="#6B360C" p-id="1401"></path><path d="M512.44561953 464.03080508l-100.7373665 214.11660761q4.34650166 3.13990136 17.23518017 9.2688794t22.04786778 7.25331006l97.48777412-210.92186074a107.97696474 107.97696474 0 0 0-18.62002793-12.10713135 186.2825458 186.2825458 0 0 0-17.41342764-7.60980498z" fill="#FFFFFF" p-id="1402"></path><path d="M640.87993408 577.4648917a120.12523066 119.41223994 0 1 0 240.25046133 0 120.12523066 119.41223994 0 1 0-240.25046133 0Z" fill="#6B360C" p-id="1403"></path><path d="M765.70816133 437.73241484l13.77991758 6.67743311-109.80057568 223.7831165-13.77991758-6.67743223 109.80057568-223.78311738z" fill="#FFFFFF" p-id="1404"></path><path d="M795.03676191 464.03080508l-100.7373665 214.11660761q4.34650166 3.13990136 17.23518018 9.2688794t22.04786777 7.25331006l97.50148506-210.92186074a108.04552207 108.04552207 0 0 0-18.63373887-12.10713135 184.71945059 184.71945059 0 0 0-17.41342763-7.60980498z" fill="#FFFFFF" p-id="1405"></path><path d="M1054.40085898 539.07308193a9.95444825 9.95444825 0 1 1 6.67743311-18.74343076c35.25190839 12.57331729 59.72668682 26.88797813 73.46546982 43.4787249 14.90424873 18.03043916 17.04322089 38.69346006 6.30722637 60.05575987-12.42249258 24.68044951-54.84544278 32.52334747-118.83636299 29.05437304-49.11409336-2.66000362-108.62139902-12.55960635-149.28929472-23.94003603a9.95444825 9.95444825 0 0 1 5.36114267-19.19590488c39.26933701 10.96908838 97.35066036 20.66302089 145.01134952 23.30931357 55.57214443 3.0027876 92.79848848-3.83918115 99.96953026-18.12641924s5.96444151-26.54519414-3.85289208-38.39180977c-11.0376457-13.36857627-32.63303847-26.0241627-64.81360196-37.5005707z" fill="#6B360C" p-id="1406"></path><path d="M177.60048154 846.39951846a9.95444825 9.95444825 0 0 0-7.81547607-18.30466671c-42.77944512 18.27724395-68.80360781 15.08249707-81.76084277-7.29444375-12.09342041-20.93724756-5.86846231-60.00091435 16.45363212-111.9669706 18.15384112-42.0253207 45.521717-89.80941182 77.51032208-138.141958a9.95444825 9.95444825 0 0 0-16.59074678-10.96908838c-32.59190391 49.22378438-60.49452305 97.95396006-79.14197285 141.22701386-24.68044951 57.39575537-31.76922217 101.58747099-15.45270381 129.79173955C89.83406182 863.6758332 126.66277637 868.22800508 177.60048154 846.39951846z" fill="#6B360C" p-id="1407"></path></svg>