<?xml version="1.0" standalone="no"?><!DOCTYPE svg PUBLIC "-//W3C//DTD SVG 1.1//EN" "http://www.w3.org/Graphics/SVG/1.1/DTD/svg11.dtd"><svg t="1701181669653" class="icon" viewBox="0 0 1261 1024" version="1.1" xmlns="http://www.w3.org/2000/svg" p-id="1230" xmlns:xlink="http://www.w3.org/1999/xlink" width="246.2890625" height="200"><path d="M419.77802481 248.39104063c32.72831367-74.447608 86.50239434-170.06983417 166.83422695-177.04213946s157.68576123 80.26024834 228.84049511 256.40042696 64.42581445 428.96139258-39.55745039 535.80802675-304.53366885 121.07758183-400.68561796-68.72086933S386.99244424 322.79569825 419.77802481 248.39104063z" fill="#C7E73D" p-id="1231"></path><path d="M593.34117031 950.31745244a238.69048536 238.69048536 0 0 1-36.02118867-2.72020166c-80.17434756-12.25522178-147.73555195-65.08438945-190.09910479-148.73773096-41.93404717-82.80864756-50.98229472-191.20150195-26.87272294-322.12907402 20.57331006-111.67141201 59.71557217-205.74741885 71.22631728-231.93293379C463.04353935 127.8575 520.05322724 68.14192783 585.83914209 62.42950566c84.69847089-7.34454316 164.7296499 80.77565479 237.93169307 261.99831358 35.52009961 87.94839551 52.49988106 196.48441846 46.55838867 297.7904329-6.32804677 107.92039834-37.58172539 195.85447734-88.01997979 247.68146603-49.92284795 51.18273106-119.84633262 80.4177334-188.96807373 80.41773427zM419.77802481 248.39104063l8.20355449 3.60784599c-11.31030967 25.69874151-49.7796794 118.11399433-69.99506894 227.93853252-23.39372901 127.01907334-14.90383828 231.60364629 25.22628544 310.79013135 20.90259756 41.27547217 47.70373711 74.31875683 79.64462461 98.19925839a214.96746885 214.96746885 0 0 0 97.16844551 40.93186817c74.447608 11.38189395 154.76512412-16.43574112 209.45548213-72.58641856 47.4174-48.67728223 76.88147256-132.57401045 82.95181611-236.22798779 5.72673867-98.78624912-10.70900244-204.44458623-45.28418906-290.01638496-35.07627656-86.81736445-71.87057578-152.1880919-109.36640039-194.25099024-36.30752578-40.67416406-73.4597455-59.70125479-110.35426201-56.49428056-58.69907578 5.09679756-110.81240156 61.26179151-159.40378301 171.71627168z" fill="#85A304" p-id="1232"></path><path d="M848.89690244 502.95891026c17.02273184 142.9823584-2.86336933 291.82030752-76.58081806 367.47053174-104.05484912 106.83231768-304.54798536 121.07758183-400.68561797-68.72086934-46.04298223-90.91198301-45.26987256-202.99858418-28.37599277-303.30241964a303.51717247 303.51717247 0 0 0 22.79242177 55.83570645c95.92287979 180.03436084 296.47328291 166.3474544 400.6140337 64.86963662 34.83289072-34.00251328 60.11644394-73.03024072 82.23597333-116.15258583z" fill="#B9D835" p-id="1233"></path><path d="M509.6735123 120.69907578a121.52140401 121.52140401 0 0 1 79.34397012-39.9010544c70.36730684-6.12761045 134.87902295 58.79929395 202.95563379 215.56877609 20.22970605 40.33056006 54.31812011 138.17189795 56.92378623 206.59211279-23.72301651-77.09622539-78.84288018-151.14296162-126.89022129-210.45766114C642.54817637 194.45947578 568.54439052 135.01592334 509.6735123 120.69907578z" fill="#DFF57D" p-id="1234"></path><path d="M195.14668378 208.03184668q56.50859795 244.34564063 157.87188018 385.62429463 100.67607334 140.305108 281.22584063 313.46738086a17.29475244 17.29475244 0 0 1-8.93371289 29.52134033q-286.73782646 51.23999795-435.23217158-95.43610723c-99.33028945-98.09904112-160.53481406-247.68146602-109.83885645-462.97822236Q107.81391289 261.19030273 165.73987901 200.0430459A17.29475244 17.29475244 0 0 1 195.14668378 208.03184668z" fill="#F9FFDB" p-id="1235"></path><path d="M552.81017481 954.82725928c-81.77783467 0-153.97769795-11.16714112-215.11063741-33.3009879-72.51483427-26.25709834-131.47161328-68.63496768-175.22389951-125.98826044-46.91631006-61.44791045-75.76475801-130.56965156-85.75791855-205.43244785-11.45347822-85.78655156 2.06162578-178.96059668 40.1873915-277.00237002 31.13914394-80.17434756 71.49833789-138.7159374 119.93223427-174.17877012A21.47527177 21.47527177 0 0 1 271.02597734 154.52978662c14.03051045 168.49498096 48.49116328 306.09420469 102.39409512 408.97507325s134.57836846 222.46949707 239.70698174 355.44437929a21.47527177 21.47527177 0 0 1-3.53626172 30.20854834 21.31778672 21.31778672 0 0 1-12.34112256 4.610025q-22.70652011 1.07376328-44.43949512 1.05944678zM249.55070557 152.72586406a3.49331045 3.49331045 0 0 0-2.10457705 0.68720889C201.78970156 186.8285955 163.4921334 242.75020273 133.58423867 319.61735879c-36.98041817 95.17840401-50.1089669 185.40317812-39.09931084 268.15455791 9.57797138 71.72740722 37.22380401 137.97146162 82.23597334 196.91392413 41.63339355 54.54719033 97.8556544 94.92070078 167.07761279 119.98950117 69.75168222 25.25491934 154.72217373 35.79211934 252.57782813 31.19641083a3.53626172 3.53626172 0 0 0 2.04730927-0.77310966 3.59352862 3.59352862 0 0 0 0.60130812-5.03953067c-105.83013867-133.84820918-187.09256602-254.36743417-241.52522169-358.23616435C302.5230418 466.82318692 267.34654708 326.86168291 253.11560029 156.00442256a3.66511289 3.66511289 0 0 0-0.6728915-1.81823995 3.57921211 3.57921211 0 0 0-2.34796289-1.43168466 3.04948828 3.04948828 0 0 0-0.54404033-0.02863389z" fill="#8C9201" p-id="1236"></path><path d="M1026.23969551 201.47473057a17.28043506 17.28043506 0 0 1 29.10615205-9.03393106q60.13076045 59.08563106 91.71372656 175.10936484c58.18366933 213.42124951 2.23342822 365.07961758-93.61786728 466.52880059q-143.31164589 151.75858623-431.68159336 110.56901573a17.30906895 17.30906895 0 0 1-10.02179356-29.19205284Q786.21774365 736.12309326 881.9258706 592.3676252 978.27825605 447.62429375 1026.23969551 201.47473057z" fill="#F9FFDB" p-id="1237"></path><path d="M659.97177998 962q-17.1802169 0-34.94742539-0.658575a26.27141573 26.27141573 0 0 1-19.65703183-42.49240401C707.68983359 788.83772627 786.43249648 671.69727793 839.40483271 570.67760058s87.21823623-235.88438379 101.64961934-400.45654863a26.25709834 26.25709834 0 0 1 42.50672051-18.25398105c45.01216933 35.79211934 82.79433018 92.44388584 112.301354 168.32317939 38.06849795 98.02745683 51.58360283 191.25876885 40.14444112 277.0166874-10.02179356 74.86279717-38.855925 143.97022089-85.75791856 205.43244786-43.07939473 56.40837979-100.86219229 98.37106084-171.80217246 124.69974433-61.86309873 22.96422422-135.23694346 34.56087011-218.47509668 34.56087012zM958.86461006 171.78158867C944.18984112 338.73035029 909.32831739 475.75689981 855.15336494 578.99568887c-53.44479229 101.99322334-132.77444589 220.06426641-235.75553174 350.94888896a8.33240566 8.33240566 0 0 0 1.43168467 11.71118145 8.43262295 8.43262295 0 0 0 4.85341172 1.77528955c95.40747334 3.55057822 178.34497208-7.48771172 246.53611846-32.79989883 67.69005645-25.12606817 122.78128623-65.09870683 163.7561039-118.82983623 44.99785283-58.9424625 72.67231933-125.1865169 82.25029073-196.91392412 11.03828994-82.76569717-2.11889355-172.97615479-39.12794473-268.15455791-28.33304151-72.88707217-64.2396955-126.91885518-106.73210039-160.7495669a8.33240566 8.33240566 0 0 0-13.5007875 5.79832383z" fill="#8C9201" p-id="1238"></path><path d="M535.21476875 395.3964333m7.17274072 0l17.781525 0q7.17274072 0 7.17274073 7.17274072l0 27.67446651q0 7.17274072-7.17274072 7.17274072l-17.78152501 0q-7.17274072 0-7.17274072-7.17274072l0-27.6744665q0-7.17274072 7.17274072-7.17274073Z" fill="#202020" p-id="1239"></path><path d="M631.99665898 395.3964333m7.17274073 0l17.781525 0q7.17274072 0 7.17274071 7.17274072l0 27.67446651q0 7.17274072-7.17274071 7.17274072l-17.781525 0q-7.17274072 0-7.17274073-7.17274072l0-27.6744665q0-7.17274072 7.17274073-7.17274073Z" fill="#202020" p-id="1240"></path><path d="M488.5991123 438.41856113m7.17274072 1e-8l32.61377901 0q7.17274072 0 7.17274073 7.17274071l0 5.42608507q0 7.17274072-7.17274073 7.17274071l-32.61377901 0q-7.17274072 0-7.17274071-7.17274071l0-5.42608507q0-7.17274072 7.17274071-7.17274071Z" fill="#F9FFB7" p-id="1241"></path><path d="M664.26683398 436.62895508m7.17274073 0l32.61377901 0q7.17274072 0 7.17274071 7.17274072l0 5.42608506q0 7.17274072-7.17274071 7.17274072l-32.61377901 0q-7.17274072 0-7.17274073-7.17274072l0-5.42608506q0-7.17274072 7.17274073-7.17274072Z" fill="#F9FFB7" p-id="1242"></path><path d="M382.06744824 543.13198526c5.18269922 4.29505401 22.33428222 16.92251367 24.03798751 24.3386411 6.05602617 26.57206933-11.53937901 66.65924356-37.49582461 51.99879112-7.15842422-4.03735078 0.68720888-28.18987295-4.20915323-22.70652011-9.01961367 10.02179356-38.16871612 44.49676289-61.74856406-5.6408379-9.00529717-19.12730888 10.43698184-41.51885888 32.55651211-52.19922744s29.76472617-9.92157539 46.85904228 4.20915323z" fill="#C7E73D" p-id="1243"></path><path d="M379.53336641 628.9471707a28.43325967 28.43325967 0 0 1-14.00187745-3.95145c-4.79614395-2.70588428-6.15624434-8.10333545-6.34236328-13.72985684-7.88858349 7.15842422-18.85528828 14.24526328-31.11051006 12.46997461s-22.60630283-11.81139961-31.11051005-29.87926172c-5.09679756-10.83785362-3.26424112-23.45099678 5.13974795-35.50578222 6.90072099-9.878625 17.96764394-18.98414033 30.36603427-24.99721611 24.0952544-11.68254756 34.61813789-10.69468506 53.58796085 4.98226289l2.72020165 2.17616132c10.8664875 8.59010888 21.63275683 17.73857461 23.4366794 25.64147373 4.69592578 20.61626045-3.30719151 46.95926045-17.48087139 57.52509434a25.19765244 25.19765244 0 0 1-15.20449189 5.2686z m-7.34454316-14.60318466c5.51198672 2.94927099 10.43698184 2.70588428 15.04700683-0.73015929 10.26518027-7.64519677 16.33552295-28.93434961 12.75631172-44.66856445-0.44382217-1.94709112-4.10893506-6.75755244-19.02709073-18.61190243-1.14534756-0.91627823-2.14752744-1.70370528-2.86336933-2.3336464-15.29039356-12.62745967-20.15812177-13.02833144-40.08717422-3.36445927-19.68566572 9.5493375-36.62249678 29.0345669-29.635875 43.88113828 6.60006651 14.01619395 13.84439151 21.69002461 21.47527178 22.80673916 11.72549795 1.71802177 23.99503711-12.08341934 29.23500322-17.96764395l0.61562461-0.70152626c3.49331045-3.89418223 7.05820606-2.94927099 8.43262295-2.34796289 4.85341172 2.09025967 4.43822256 6.98662178 3.95145 12.64177704-0.20043545 2.53408183-0.77310967 9.20573349 0.10021816 11.35326007z" fill="#85A304" p-id="1244"></path><path d="M827.52184883 528.72923692c17.09431612-14.13072862 24.72519638-14.90383828 46.84472578-4.16620284s41.51885888 33.05760117 32.57082861 52.18491006c-23.57984795 50.1089669-52.72895039 15.74853222-61.74856406 5.6551544-4.89636211-5.48335283 2.86336933 18.61190244-4.22346973 22.6922036-25.94212822 14.66045244-43.53753428-25.4124044-37.4815081-51.98447372 1.70370528-7.40181006 18.84097177-20.0865375 24.0379875-24.38159151z" fill="#C7E73D" p-id="1245"></path><path d="M830.05593154 614.63032315a25.19765244 25.19765244 0 0 1-15.20449277-5.2686c-14.17367901-10.55151651-22.19111367-36.89451651-17.48087138-57.52509434 1.80392256-7.9029 12.5701919-16.99409795 23.45099677-25.64147461 1.07376328-0.85901045 2.00435888-1.58916972 2.70588428-2.17616045 18.96982295-15.74853222 29.49270644-16.65049395 53.57364434-4.98226289 12.41270683 6.01307578 23.47963066 15.13290849 30.36603427 25.01153262 8.41830645 12.05478545 10.25086289 24.66792862 5.15406534 35.50578222-8.50420723 18.05354472-18.96982295 28.11828867-31.11051007 29.87926172s-23.22192744-5.34018427-31.11051094-12.48429111c-0.18611894 5.62652138-1.54621934 11.02397256-6.34236328 13.72985684a28.43325967 28.43325967 0 0 1-14.00187656 3.95145z m21.21756768-91.04083506c-6.24214599 0-11.45347822 3.24992461-19.75725 10.10769433l-2.86336933 2.31932988c-14.91815566 11.85435-18.61190244 16.66481045-19.02709073 18.61190156-3.57921211 15.74853222 2.49113144 37.03768506 12.74199433 44.66856534 4.610025 3.43604356 9.5493375 3.67943027 15.06132422 0.73015927 0.87332783-2.13321006 0.30065362-8.80486172 0.08590078-11.45347821-0.48677256-5.72673867-0.90196172-10.55151651 3.95145-12.64177706 1.43168467-0.58699072 4.9393125-1.54621934 8.43262383 2.36228027l0.61562461 0.6872089c5.23996612 5.88422461 17.5095044 19.68566572 29.23500234 17.96764394 7.70246367-1.11671455 14.94678867-8.79054433 21.54685606-22.80673828 6.97230528-14.83225401-10.02179356-34.36043467-29.635875-43.86682178-9.16278223-4.40958867-15.07564073-6.75755244-20.38719111-6.75755244z" fill="#85A304" p-id="1246"></path></svg>