<?xml version="1.0" standalone="no"?><!DOCTYPE svg PUBLIC "-//W3C//DTD SVG 1.1//EN" "http://www.w3.org/Graphics/SVG/1.1/DTD/svg11.dtd"><svg t="1701181703729" class="icon" viewBox="0 0 1814 1024" version="1.1" xmlns="http://www.w3.org/2000/svg" p-id="1721" xmlns:xlink="http://www.w3.org/1999/xlink" width="354.296875" height="200"><path d="M1274.62529858 504.64016386m-324.08090596 0a324.08090684 324.08090684 0 1 0 648.16181279 0 324.08090684 324.08090684 0 1 0-648.16181279 0Z" fill="#539247" p-id="1722"></path><path d="M1257.84488296 813.4727794a338.67257256 338.67257256 0 0 1-255.09880459-560.83069073 338.67257256 338.67257256 0 0 1 477.87706758-33.41491523 338.67257256 338.67257256 0 0 1-198.64729512 593.46130429q-12.12932285 0.78430166-24.13096787 0.78430167z m0.94845762-648.1982918q-10.94374951 0-22.03341593 0.78430166a309.47100029 309.47100029 0 0 0-181.44736875 542.28103506 309.47100029 309.47100029 0 0 0 436.60089229-30.51482169c111.95455869-128.78969414 98.25663252-324.66457266-30.53306162-436.61913222a307.26401133 307.26401133 0 0 0-202.58704599-75.87666387z" fill="#365A26" p-id="1723"></path><path d="M1289.5452771 358.83293925m-55.4665711 0a55.46657109 55.46657109 0 1 0 110.93314219 0 55.46657109 55.46657109 0 1 0-110.93314219 0Z" fill="#223D16" p-id="1724"></path><path d="M1318.34557856 385.79104268m-16.05083291 0a16.05083291 16.05083291 0 1 0 32.10166582 0 16.05083291 16.05083291 0 1 0-32.10166582 0Z" fill="#FFFFFF" p-id="1725"></path><path d="M1353.38381694 561.31054824m-55.46657109 0a55.46657109 55.46657109 0 1 0 110.93314218 0 55.46657109 55.46657109 0 1 0-110.93314218 0Z" fill="#223D16" p-id="1726"></path><path d="M1359.4575979 529.84726719m-16.05083291 0a16.05083291 16.05083291 0 1 0 32.10166582 0 16.05083291 16.05083291 0 1 0-32.10166582 0Z" fill="#FFFFFF" p-id="1727"></path><path d="M1222.80664369 432.72148906a11.6733331 11.6733331 0 1 1 12.93186446 19.49811417c-9.4481042 6.21969786-12.76770761 13.47905127-10.94374951 23.711458 1.8239581 10.67015567 9.52106221 19.04212442 24.53223867 25.53541523a11.6733331 11.6733331 0 1 1-9.11979141 21.46798916c-21.77806201-9.33866631-35.05647833-23.71145801-38.30312372-42.97245732-3.59319815-19.58931211 3.81207305-36.00493594 20.90256151-47.24051924z" fill="#223D16" p-id="1728"></path><path d="M518.32099926 456.14111328m-324.08090596 0a324.08090684 324.08090684 0 1 0 648.1618128 0 324.08090684 324.08090684 0 1 0-648.16181279 0Z" fill="#539247" p-id="1729"></path><path d="M518.9229059 794.81368584c-127.67707969 0-250.0646792-72.44762256-307.46464628-195.52832666-78.92267432-169.26332783-5.47187519-371.15726924 163.80969258-450.07994444A338.67257256 338.67257256 0 0 1 825.34789663 313.0151082c78.92267432 169.24508877 5.47187519 371.15726924-163.80969346 450.07994356A336.81213545 336.81213545 0 0 1 518.9229059 794.81368584zM237.83269634 586.93716143c72.11931065 154.65342217 256.61268984 221.81156631 411.28435107 149.69225566S870.94685278 480.01672724 798.80930308 325.36330508A309.45276123 309.45276123 0 0 0 387.59791001 175.67104942C232.87152983 247.77212011 165.73162563 432.26550019 237.83269634 586.93716143z" fill="#365A26" p-id="1730"></path><path d="M693.25683814 712.13365742a259.00207471 259.00207471 0 0 1-45.98198878 27.52353018c-134.66283925 62.87184141-331.04842734 8.4996457-404.15267461-142.76121416-67.48645605-139.6057667-31.22616533-280.41534492 83.40961201-383.50546699 19.46163516-17.52823916 67.48645605-43.13661328 84.66814336-47.14932129-100.64601738 75.40243506-133.27663096 253.53020039-75.78546591 376.86625927s235.40005547 197.66235849 357.84237393 169.02621299z" fill="#80C173" p-id="1731"></path><path d="M457.72910571 559.17651641m-55.46657109 0a55.46657109 55.46657109 0 1 0 110.93314219 0 55.46657109 55.46657109 0 1 0-110.93314219 0Z" fill="#223D16" p-id="1732"></path><path d="M436.8995022 525.68864229m-16.05083292 0a16.05083291 16.05083291 0 1 0 32.10166582 0 16.05083291 16.05083291 0 1 0-32.10166582 0Z" fill="#FFFFFF" p-id="1733"></path><path d="M466.68474116 338.47756543m-55.46657109 0a55.46657109 55.46657109 0 1 0 110.93314218 0 55.46657109 55.46657109 0 1 0-110.93314218 0Z" fill="#223D16" p-id="1734"></path><path d="M448.33572046 364.7608042m-16.05083292 0a16.05083291 16.05083291 0 1 0 32.10166583 0 16.05083291 16.05083291 0 1 0-32.10166583 0Z" fill="#FFFFFF" p-id="1735"></path><path d="M541.75886343 506.64651787a11.6733331 11.6733331 0 1 1-6.98576045-22.28876982c10.79783261-3.37432325 15.95963496-9.4481042 17.09048935-19.82642608 1.18557246-10.76135362-3.90327099-20.93904141-16.56154072-31.26264522a11.6733331 11.6733331 0 1 1 14.75582168-18.09366591c18.36725977 14.97469746 27.14049932 32.52117568 25.02470829 51.89161289-2.15227089 19.75346807-13.80736406 33.46963418-33.32371815 39.57989414z" fill="#223D16" p-id="1736"></path><path d="M566.74709184 144.68199893a14.59166661 14.59166661 0 0 1-18.33078076-22.74476046C617.41665239 66.37946943 679.54067202 48.88771016 733.96758666 71.79662568q75.07412227 31.62743613 160.89135909 101.94102774A14.59166661 14.59166661 0 0 1 876.41872798 196.31825703q-82.84418526-67.79652891-153.74144268-97.60000693c-42.91773838-18.05718691-94.53575742-3.52023925-155.93019346 45.96374883z" fill="#365A26" p-id="1737"></path><path d="M566.74709184 779.71131143A14.59166661 14.59166661 0 1 0 548.41631108 802.52902989c69.00034131 55.46657109 131.12436006 72.95833125 185.55127559 50.04941483q73.97974776-31.15320732 198.04538936-103.49139199a14.59166661 14.59166661 0 0 0-14.70110362-25.22534325q-122.6794333 71.480925-194.68930606 101.81335078c-42.86301943 18.05718691-94.48103847 3.52023925-155.87547451-45.96374883z" fill="#365A26" p-id="1738"></path><path d="M1207.95962407 147.43617559A14.59166661 14.59166661 0 0 0 1226.61871674 125.03796787C1158.71274994 68.27638643 1096.8440851 49.69025176 1042.0341396 71.66894873Q967.61664204 101.47242675 836.29164614 172.1690501a14.59166661 14.59166661 0 0 0 13.82560312 25.71781113q130.21238144-70.02175781 202.86063985-99.13213212c43.08189434-17.29112432 94.44455948-1.86043711 154.98173496 48.68144648zM1196.86995767 782.46548896a14.59166661 14.59166661 0 0 1 17.92950995 23.05483242c-69.89408086 54.3357167-132.38289141 70.75134141-186.39029618 46.89396739q-74.52693545-32.83124854-159.08564093-104.71344434a14.59166661 14.59166661 0 1 1 18.87796758-22.27053076q81.64037286 69.21921621 152.0086834 100.31770459c42.53470664 18.73205156 94.40808047 5.03412451 156.65977618-43.2825293z" fill="#365A26" p-id="1739"></path><path d="M1442.95840786 563.37162031c57.4729251-123.2631 24.84231152-301.44558427-75.78546592-376.84801934 17.12696836 4.01270801 65.18826914 29.62108213 84.64990342 47.13108223 114.63577734 103.18132002 150.89606807 243.99089824 83.42785107 383.59666495-73.12248721 151.24261992-269.50807441 205.56009756-404.17091367 142.76121415a259.64046035 259.64046035 0 0 1-45.98198877-27.52353017c122.44231933 28.63614463 300.36944883-45.83607188 357.86061387-169.11741182z" fill="#80C173" p-id="1740"></path></svg>